<svg width="127" height="32" viewBox="0 0 127 32" fill="none" xmlns="http://www.w3.org/2000/svg">
<path d="M64.6352 20.1534H60.7642L54.0172 11.4196V20.1534H49.5547V3.92648H53.4718L60.1833 12.6245V3.92648H64.6352V20.1534Z" fill="white"/>
<path d="M67.1809 13.9369C67.1809 13.031 67.3301 12.1733 67.6303 11.3658C67.9305 10.5583 68.364 9.85469 68.9325 9.2531C69.5009 8.65329 70.1955 8.17524 71.0163 7.82073C71.837 7.46622 72.7679 7.28896 73.8106 7.28896C74.5372 7.28896 75.1856 7.3946 75.7577 7.60587C76.3297 7.81715 76.8289 8.0696 77.2552 8.36324L77.3973 7.70614H81.0782V20.1498H77.3973L77.2552 19.482C76.8289 19.7846 76.3261 20.0406 75.7452 20.2519C75.1643 20.4632 74.5159 20.5688 73.7982 20.5688C72.7643 20.5688 71.8388 20.3933 71.0216 20.0442C70.2044 19.6951 69.5116 19.2188 68.9431 18.619C68.3746 18.0192 67.9394 17.3138 67.6356 16.5063C67.3319 15.7005 67.1809 14.8429 67.1809 13.9369ZM71.5261 13.9244C71.5261 14.3863 71.5972 14.8017 71.7393 15.1706C71.8814 15.5412 72.0768 15.8563 72.3255 16.1195C72.5742 16.3827 72.862 16.5832 73.1889 16.7229C73.5158 16.8626 73.8693 16.9324 74.2477 16.9324C74.6261 16.9324 74.9778 16.8626 75.3011 16.7229C75.6244 16.5832 75.9087 16.3845 76.1538 16.1267C76.399 15.8688 76.5891 15.5537 76.7276 15.1849C76.8662 14.8143 76.9355 14.3953 76.9355 13.9262C76.9355 13.4732 76.8644 13.0632 76.7223 12.6979C76.5802 12.3327 76.3865 12.0194 76.1414 11.7615C75.8962 11.5037 75.6102 11.305 75.2833 11.1653C74.9565 11.0257 74.603 10.9558 74.2246 10.9558C73.8373 10.9558 73.4802 11.0257 73.1534 11.1653C72.8265 11.305 72.5422 11.5019 72.3006 11.7562C72.059 12.0104 71.8707 12.3237 71.7322 12.6926C71.5936 13.0596 71.5261 13.4714 71.5261 13.9244Z" fill="white"/>
<path d="M87.8021 16.1679C87.8412 16.4704 87.9869 16.7032 88.2409 16.8661C88.4932 17.0291 88.8254 17.1114 89.2358 17.1114C89.7243 17.1114 90.0707 17.0506 90.2714 16.927C90.4722 16.8035 90.5734 16.6316 90.5734 16.4078C90.5734 16.2574 90.5077 16.1374 90.378 16.0497C90.2483 15.962 90.0565 15.8832 89.8042 15.8116C89.552 15.7399 89.2358 15.6665 88.8574 15.5913C88.479 15.5161 88.0366 15.4141 87.5321 15.2869C87.3189 15.2386 87.0827 15.1795 86.8215 15.1079C86.5604 15.0363 86.2992 14.9414 86.0346 14.8214C85.7699 14.7015 85.5141 14.5511 85.2653 14.3684C85.0166 14.1858 84.7964 13.962 84.6027 13.7006C84.4091 13.4374 84.2545 13.1241 84.1408 12.7588C84.0271 12.3936 83.9685 11.9674 83.9685 11.4822C83.9685 10.1143 84.4482 9.07405 85.4075 8.36145C86.3668 7.64885 87.8004 7.29433 89.7101 7.29433C90.5077 7.29433 91.2219 7.39818 91.8525 7.60408C92.4831 7.81178 93.0179 8.10362 93.4567 8.48141C93.8954 8.8592 94.2276 9.31218 94.4568 9.84216C94.686 10.3721 94.7997 10.9576 94.7997 11.6022L90.4189 11.5896C90.4029 11.3676 90.3123 11.1725 90.1471 11.0042C89.9819 10.8377 89.7278 10.7535 89.3903 10.7535C89.0421 10.7535 88.7721 10.8215 88.5785 10.9558C88.3848 11.0919 88.2924 11.2495 88.2996 11.4339C88.2996 11.5538 88.3351 11.6487 88.4061 11.7204C88.4772 11.792 88.5891 11.8528 88.7437 11.9048C88.8982 11.9567 89.099 12.0068 89.3477 12.0534C89.5964 12.1017 89.8984 12.1536 90.2537 12.2091C90.9394 12.3363 91.5807 12.4831 92.1776 12.6514C92.7727 12.8179 93.2897 13.0435 93.7285 13.3264C94.1672 13.6093 94.5101 13.9728 94.7588 14.4186C95.0075 14.8644 95.1319 15.4284 95.1319 16.1124C95.1319 16.8912 94.9773 17.5644 94.67 18.1284C94.3627 18.6942 93.9381 19.1561 93.398 19.5178C92.858 19.8795 92.2167 20.148 91.4741 20.3235C90.7315 20.499 89.9304 20.5867 89.0705 20.5867C88.0597 20.5867 87.2017 20.4542 86.4964 20.1874C85.7894 19.9207 85.2174 19.5769 84.7804 19.1561C84.3416 18.7354 84.0254 18.2609 83.8282 17.7363C83.631 17.2117 83.5315 16.6871 83.5315 16.1607L87.8021 16.1679Z" fill="white"/>
<path d="M97.1197 4.47436C97.1197 4.18073 97.1784 3.89962 97.2974 3.63285C97.4164 3.36607 97.5852 3.13331 97.8072 2.93457C98.0275 2.73583 98.294 2.57827 98.6066 2.46368C98.9175 2.34909 99.2639 2.29 99.6423 2.29C100.03 2.29 100.378 2.3473 100.69 2.46368C101.001 2.57827 101.268 2.73583 101.49 2.93457C101.71 3.13331 101.881 3.36607 102 3.63285C102.119 3.89962 102.177 4.17894 102.177 4.47436C102.177 4.77695 102.119 5.06163 102 5.32662C101.881 5.5934 101.712 5.82616 101.49 6.0249C101.27 6.22364 101 6.37941 100.685 6.49042C100.369 6.60143 100.019 6.65693 99.6317 6.65693C99.2533 6.65693 98.9104 6.59964 98.6013 6.48326C98.294 6.36867 98.0311 6.21111 97.8143 6.01237C97.5976 5.81363 97.4271 5.58266 97.3045 5.31946C97.1801 5.05984 97.1197 4.77695 97.1197 4.47436Z" fill="#1F63FB"/>
<path d="M101.795 7.70793H97.4271V20.1516H101.795V7.70793Z" fill="white"/>
<path d="M125.863 20.1534H121.507V13.5789C121.507 12.6872 121.381 12.0283 121.129 11.5986C120.877 11.1689 120.47 10.954 119.91 10.954C119.215 10.954 118.677 11.1886 118.294 11.6577C117.91 12.1268 117.711 12.7678 117.695 13.5789V20.1534H113.326V13.5789C113.326 12.6872 113.202 12.0283 112.953 11.5986C112.705 11.1689 112.296 10.954 111.728 10.954C111.017 10.954 110.47 11.2011 110.088 11.6935C109.704 12.1877 109.514 12.8752 109.514 13.7579V20.1534H105.181V7.70973H108.651L108.864 8.40084C109.322 8.10721 109.85 7.84759 110.45 7.62557C111.051 7.40356 111.705 7.29076 112.415 7.29076C113.197 7.29076 113.899 7.41788 114.522 7.67213C115.146 7.92637 115.682 8.28088 116.132 8.73387C116.384 8.54229 116.663 8.35966 116.966 8.1842C117.27 8.00873 117.602 7.85654 117.961 7.72405C118.32 7.59335 118.706 7.48771 119.116 7.40714C119.526 7.32836 119.969 7.28718 120.441 7.28718C121.34 7.28718 122.131 7.43221 122.809 7.72226C123.488 8.01231 124.053 8.42591 124.502 8.96305C124.952 9.50019 125.291 10.1501 125.52 10.9146C125.749 11.6792 125.863 12.5332 125.863 13.4804V20.1534Z" fill="white"/>
<path d="M50.1178 29.4853V24.6493H52.2105C52.429 24.6493 52.628 24.6797 52.8092 24.7406C52.9886 24.8015 53.1432 24.8874 53.2711 25.002C53.399 25.1166 53.4985 25.2544 53.5695 25.4156C53.6406 25.5785 53.6761 25.7593 53.6761 25.9617C53.6761 26.0691 53.6601 26.1712 53.6281 26.2714C53.5962 26.3717 53.5535 26.463 53.4967 26.5489C53.4398 26.6349 53.3759 26.7101 53.3031 26.7745C53.2284 26.839 53.1503 26.8909 53.065 26.9249C53.1858 26.9661 53.2977 27.0216 53.4061 27.095C53.5127 27.1684 53.6068 27.2544 53.6868 27.3546C53.7667 27.4549 53.8307 27.5659 53.8769 27.6895C53.923 27.813 53.9479 27.9419 53.9479 28.0762C53.9479 28.3179 53.9035 28.5274 53.8165 28.7029C53.7294 28.8801 53.6139 29.0251 53.47 29.1397C53.3261 29.2543 53.1627 29.3403 52.978 29.3976C52.7932 29.4549 52.6049 29.4835 52.4113 29.4835H50.1178V29.4853ZM50.9936 26.6617H52.1608C52.2407 26.6617 52.3171 26.6456 52.3917 26.6134C52.4663 26.5812 52.5321 26.5382 52.5889 26.4827C52.6458 26.4272 52.6919 26.3592 52.7257 26.2822C52.7595 26.2034 52.7772 26.1192 52.7772 26.0261C52.7772 25.9366 52.7595 25.8525 52.7257 25.7737C52.6919 25.6949 52.6458 25.6286 52.5889 25.5713C52.5321 25.5141 52.4663 25.4693 52.3917 25.4371C52.3171 25.403 52.2407 25.3869 52.1608 25.3869H50.9936V26.6617ZM52.326 28.744C52.4077 28.744 52.4912 28.7279 52.5765 28.6957C52.6617 28.6635 52.7381 28.6169 52.8056 28.5578C52.8731 28.497 52.9282 28.4236 52.9709 28.3376C53.0135 28.2517 53.0348 28.1514 53.0348 28.0404C53.0348 27.9383 53.0153 27.8452 52.978 27.7593C52.9407 27.6734 52.8891 27.5999 52.827 27.5373C52.763 27.4746 52.6884 27.4263 52.6031 27.3922C52.5179 27.3582 52.4255 27.3403 52.3295 27.3403H50.9919V28.744H52.326Z" fill="#EAEBF3"/>
<path d="M54.5945 27.6572C54.5945 27.3887 54.6443 27.138 54.742 26.9017C54.8415 26.6653 54.9783 26.4594 55.1559 26.2839C55.3336 26.1085 55.545 25.9706 55.7883 25.8686C56.0335 25.7665 56.3 25.7164 56.5895 25.7164C56.8809 25.7164 57.1491 25.7665 57.396 25.8686C57.6412 25.9706 57.8526 26.1085 58.0302 26.2839C58.2079 26.4594 58.3465 26.6653 58.4459 26.9017C58.5454 27.138 58.5952 27.3887 58.5952 27.6572C58.5952 27.7163 58.5934 27.7647 58.5881 27.7987C58.5827 27.8345 58.5792 27.8685 58.5738 27.9025H55.4348C55.4632 28.0511 55.5148 28.1872 55.5876 28.3072C55.6622 28.4289 55.751 28.531 55.8558 28.6151C55.9607 28.6993 56.0761 28.7637 56.204 28.8103C56.3302 28.8568 56.4616 28.8801 56.5949 28.8801C56.8063 28.8801 56.9928 28.8336 57.1562 28.7387C57.3179 28.6438 57.4422 28.5202 57.5275 28.3645H58.4548C58.3962 28.5256 58.3109 28.6796 58.1972 28.8282C58.0835 28.9768 57.9485 29.1075 57.7904 29.2203C57.6323 29.3349 57.4511 29.4244 57.2504 29.4924C57.0496 29.5605 56.8293 29.5945 56.5895 29.5945C56.3 29.5945 56.0335 29.5444 55.7883 29.4423C55.5432 29.3403 55.3318 29.2024 55.1559 29.0269C54.9783 28.8515 54.8397 28.6474 54.742 28.411C54.6443 28.1747 54.5945 27.924 54.5945 27.6572ZM56.5984 26.4093C56.4527 26.4093 56.3177 26.4308 56.1951 26.4755C56.0726 26.5203 55.9607 26.5812 55.8629 26.6582C55.7652 26.7351 55.6817 26.83 55.6142 26.9375C55.5467 27.0449 55.4952 27.1631 55.4632 27.292H57.6963C57.6625 27.1649 57.6145 27.0467 57.5488 26.9375C57.4831 26.83 57.4031 26.7369 57.309 26.6582C57.2148 26.5794 57.1083 26.5185 56.9892 26.4755C56.8702 26.4308 56.7405 26.4093 56.5984 26.4093Z" fill="#EAEBF3"/>
<path d="M62.7894 25.8256L60.663 30.7386H59.7392L60.3876 29.3313L58.8812 25.8256H59.8298L60.7962 28.1514L60.8388 28.3358L61.8692 25.8292L62.7894 25.8256Z" fill="#EAEBF3"/>
<path d="M63.1323 27.6572C63.1323 27.3887 63.182 27.138 63.2797 26.9017C63.3792 26.6653 63.516 26.4594 63.6936 26.2839C63.8713 26.1085 64.0827 25.9706 64.3261 25.8686C64.5712 25.7665 64.8377 25.7164 65.1273 25.7164C65.4186 25.7164 65.6868 25.7665 65.9338 25.8686C66.1789 25.9706 66.3903 26.1085 66.568 26.2839C66.7456 26.4594 66.8842 26.6653 66.9837 26.9017C67.0831 27.138 67.1329 27.3887 67.1329 27.6572C67.1329 27.9276 67.0831 28.18 66.9854 28.4146C66.886 28.6491 66.7474 28.855 66.5697 29.0305C66.3903 29.206 66.1789 29.3438 65.9338 29.4441C65.6886 29.5444 65.4186 29.5945 65.1237 29.5945C64.8341 29.5945 64.5677 29.5444 64.3243 29.4441C64.0809 29.3438 63.8713 29.206 63.6954 29.0305C63.5195 28.855 63.381 28.6491 63.2815 28.4128C63.182 28.1765 63.1323 27.924 63.1323 27.6572ZM63.9885 27.6536C63.9885 27.8291 64.0187 27.9903 64.0791 28.1353C64.1395 28.2803 64.2212 28.4074 64.3243 28.5131C64.4273 28.6187 64.5481 28.7011 64.6885 28.7602C64.827 28.8192 64.9762 28.8497 65.1361 28.8497C65.296 28.8497 65.4452 28.821 65.5838 28.7619C65.7224 28.7046 65.8432 28.6223 65.948 28.5166C66.051 28.411 66.1327 28.2857 66.1931 28.1389C66.2535 27.992 66.2837 27.8309 66.2837 27.6554C66.2837 27.4818 66.2535 27.3224 66.1931 27.1774C66.1327 27.0324 66.051 26.907 65.948 26.8014C65.8449 26.6975 65.7224 26.6152 65.582 26.5561C65.4417 26.497 65.2925 26.4666 65.1361 26.4666C64.9762 26.4666 64.827 26.4952 64.6885 26.5543C64.5499 26.6116 64.4291 26.694 64.3243 26.7996C64.2212 26.9052 64.1395 27.0306 64.0791 27.1774C64.0187 27.3206 63.9885 27.48 63.9885 27.6536Z" fill="#EAEBF3"/>
<path d="M71.7073 29.4853H70.8422V27.5337C70.8422 27.3385 70.8208 27.1738 70.7782 27.0395C70.7356 26.9052 70.6752 26.7942 70.5988 26.7083C70.5206 26.6224 70.4265 26.5615 70.3146 26.5239C70.2026 26.4863 70.0783 26.4666 69.9397 26.4666C69.7887 26.4666 69.6501 26.4952 69.5258 26.5507C69.3997 26.6062 69.2913 26.685 69.1989 26.7853C69.1065 26.8855 69.0355 27.0055 68.9857 27.1452C68.9342 27.283 68.9094 27.437 68.9094 27.6017V29.4853H68.0513V25.8274H68.7495L68.8134 26.198C68.888 26.1318 68.9733 26.0691 69.0675 26.0118C69.1616 25.9545 69.2629 25.9026 69.3695 25.8596C69.4761 25.8166 69.588 25.7808 69.707 25.7558C69.8242 25.7307 69.9433 25.7182 70.0641 25.7182C70.3465 25.7182 70.5899 25.7576 70.7978 25.8381C71.0038 25.9169 71.1761 26.0333 71.3111 26.1873C71.4462 26.3395 71.5456 26.5292 71.6114 26.7531C71.6753 26.9769 71.7091 27.2329 71.7091 27.5194V29.4853H71.7073Z" fill="#EAEBF3"/>
<path d="M72.5014 27.6572C72.5014 27.3887 72.5476 27.138 72.6382 26.9017C72.7305 26.6653 72.8602 26.4594 73.0272 26.2822C73.196 26.1049 73.3985 25.967 73.6366 25.865C73.8746 25.7629 74.1375 25.7128 74.4271 25.7128C74.6882 25.7128 74.9192 25.7576 75.1217 25.8435C75.3242 25.9312 75.4983 26.0422 75.6475 26.1783V24.4756H76.5056V29.4853H75.7719L75.7186 29.0592C75.6457 29.1344 75.564 29.206 75.4734 29.2704C75.3828 29.3349 75.2833 29.3922 75.175 29.4405C75.0666 29.4889 74.9511 29.5283 74.8286 29.5569C74.706 29.5856 74.5763 29.5999 74.4413 29.5999C74.1517 29.5999 73.8888 29.5497 73.649 29.4477C73.4109 29.3456 73.2066 29.2078 73.0361 29.0323C72.8673 28.8568 72.7359 28.6509 72.6417 28.4146C72.5476 28.1765 72.5014 27.924 72.5014 27.6572ZM73.3576 27.6537C73.3576 27.8291 73.3878 27.9903 73.45 28.1371C73.5104 28.2839 73.5939 28.411 73.7005 28.5149C73.8071 28.6205 73.9297 28.7029 74.07 28.7602C74.2104 28.8175 74.3631 28.8479 74.5248 28.8479C74.6847 28.8479 74.8357 28.8192 74.976 28.7602C75.1164 28.7029 75.2407 28.6205 75.3455 28.5149C75.4503 28.4092 75.5338 28.2839 75.5942 28.1371C75.6546 27.992 75.6866 27.8291 75.6866 27.6519C75.6866 27.4782 75.6564 27.3188 75.5942 27.1738C75.5338 27.0288 75.4503 26.9034 75.3437 26.7978C75.2372 26.694 75.1146 26.6116 74.9725 26.5525C74.8321 26.4934 74.6793 26.463 74.5177 26.463C74.356 26.463 74.2032 26.4916 74.0629 26.5507C73.9226 26.608 73.7982 26.6904 73.6952 26.796C73.5904 26.9017 73.5086 27.027 73.4482 27.1738C73.3878 27.3206 73.3576 27.48 73.3576 27.6537Z" fill="#EAEBF3"/>
<path d="M79.3195 24.6493H80.1971V28.7208H82.3626V29.4853H79.3195V24.6493Z" fill="#EAEBF3"/>
<path d="M83.0483 24.7907C83.0483 24.7245 83.0607 24.6618 83.0874 24.6045C83.114 24.5472 83.1496 24.4953 83.1958 24.4523C83.2419 24.4093 83.297 24.3735 83.3627 24.3467C83.4285 24.3198 83.5013 24.3073 83.5812 24.3073C83.6612 24.3073 83.734 24.3198 83.8015 24.3467C83.869 24.3735 83.9259 24.4075 83.9721 24.4523C84.0183 24.4971 84.0556 24.5472 84.0822 24.6045C84.1089 24.6618 84.1213 24.7245 84.1213 24.7907C84.1213 24.857 84.1089 24.9196 84.0822 24.9769C84.0556 25.0342 84.02 25.0861 83.9721 25.1291C83.9241 25.1739 83.8673 25.2079 83.8015 25.233C83.734 25.258 83.6612 25.2705 83.5812 25.2705C83.5013 25.2705 83.4285 25.258 83.3645 25.233C83.3006 25.2079 83.2437 25.1739 83.1975 25.1291C83.1513 25.0861 83.114 25.0342 83.0874 24.9769C83.0625 24.9196 83.0483 24.857 83.0483 24.7907ZM83.1442 25.8256H84.0076V29.4835H83.1442V25.8256Z" fill="#EAEBF3"/>
<path d="M91.1863 29.4853H90.3247V27.5158C90.3247 27.1523 90.2608 26.8873 90.1311 26.719C90.0014 26.5507 89.8184 26.4666 89.5804 26.4666C89.4436 26.4666 89.3193 26.4898 89.2073 26.5364C89.0936 26.583 88.9959 26.6492 88.9124 26.7333C88.8289 26.8193 88.7632 26.9231 88.717 27.0485C88.6691 27.1738 88.6442 27.3135 88.6389 27.4692V29.4853H87.7755V27.5158C87.7755 27.1523 87.7115 26.8873 87.5819 26.719C87.4522 26.5507 87.2692 26.4666 87.0312 26.4666C86.8926 26.4666 86.7647 26.4898 86.6492 26.5382C86.532 26.5847 86.4343 26.6546 86.3508 26.7459C86.269 26.8372 86.2051 26.9482 86.1589 27.0807C86.1127 27.2114 86.0896 27.3618 86.0896 27.5265V29.4853H85.2334V25.8274H85.9315L85.9919 26.1658C86.0594 26.1049 86.1358 26.0458 86.2193 25.9921C86.3028 25.9384 86.3934 25.89 86.4929 25.8507C86.5924 25.8113 86.6972 25.779 86.8091 25.754C86.921 25.7307 87.0383 25.7182 87.1608 25.7182C87.4149 25.7182 87.6405 25.7665 87.8359 25.8632C88.0331 25.9599 88.1947 26.0977 88.3244 26.275C88.3955 26.1998 88.4772 26.1282 88.5696 26.0601C88.662 25.9921 88.765 25.933 88.8787 25.8829C88.9924 25.8327 89.115 25.7916 89.25 25.7611C89.3832 25.7307 89.5289 25.7164 89.6834 25.7164C89.9232 25.7164 90.1364 25.7558 90.323 25.8363C90.5095 25.9151 90.6676 26.0315 90.7955 26.1819C90.9234 26.3323 91.0211 26.5185 91.0886 26.7387C91.1561 26.9589 91.1899 27.2096 91.1899 27.4925V29.4853H91.1863Z" fill="#EAEBF3"/>
<path d="M92.1296 24.7907C92.1296 24.7245 92.1421 24.6618 92.1687 24.6045C92.1954 24.5472 92.2309 24.4953 92.2771 24.4523C92.3233 24.4093 92.3783 24.3735 92.4441 24.3467C92.5098 24.3198 92.5826 24.3073 92.6626 24.3073C92.7425 24.3073 92.8153 24.3198 92.8829 24.3467C92.9504 24.3735 93.0072 24.4075 93.0534 24.4523C93.0996 24.4971 93.1369 24.5472 93.1635 24.6045C93.1902 24.6618 93.2026 24.7245 93.2026 24.7907C93.2026 24.857 93.1902 24.9196 93.1635 24.9769C93.1369 25.0342 93.1014 25.0861 93.0534 25.1291C93.0054 25.1739 92.9486 25.2079 92.8829 25.233C92.8153 25.258 92.7425 25.2705 92.6626 25.2705C92.5826 25.2705 92.5098 25.258 92.4458 25.233C92.3819 25.2079 92.325 25.1739 92.2789 25.1291C92.2327 25.0861 92.1954 25.0342 92.1687 24.9769C92.1421 24.9196 92.1296 24.857 92.1296 24.7907ZM92.2238 25.8256H93.0871V29.4835H92.2238V25.8256Z" fill="#EAEBF3"/>
<path d="M94.7428 24.7871L95.3699 24.7835V25.8256H96.5264V26.5722H95.3664V28.069C95.3664 28.2159 95.3841 28.3376 95.4179 28.4343C95.4516 28.531 95.4978 28.6062 95.5547 28.6617C95.6115 28.7172 95.679 28.7566 95.7572 28.7798C95.8353 28.8031 95.9171 28.8139 96.0041 28.8139H96.6259L96.6188 29.5247H95.9242C95.7288 29.5247 95.5458 29.505 95.3735 29.4638C95.2012 29.4244 95.0519 29.3492 94.9258 29.2418C94.7997 29.1344 94.6984 28.9857 94.6238 28.7995C94.5492 28.6115 94.5119 28.3716 94.5119 28.078V26.574H93.9043V25.9062L94.4906 25.7432L94.7428 24.7871Z" fill="#EAEBF3"/>
<path d="M97.3045 27.6572C97.3045 27.3887 97.3507 27.138 97.4431 26.9017C97.5354 26.6653 97.6669 26.4594 97.8374 26.2839C98.008 26.1085 98.2123 25.9706 98.4521 25.8686C98.6901 25.7665 98.9566 25.7164 99.2479 25.7164C99.3847 25.7164 99.5144 25.7307 99.637 25.7575C99.7596 25.7844 99.8768 25.822 99.9852 25.8686C100.094 25.9151 100.193 25.9688 100.284 26.0315C100.374 26.0942 100.454 26.1604 100.525 26.2284L100.575 25.8274H101.309V29.4853H100.575L100.525 29.0842C100.452 29.1558 100.371 29.2221 100.278 29.283C100.186 29.3438 100.086 29.3993 99.9799 29.4441C99.8733 29.4907 99.7578 29.5265 99.6334 29.5551C99.5109 29.582 99.3794 29.5963 99.2444 29.5963C98.9548 29.5963 98.6919 29.5462 98.4521 29.4459C98.214 29.3456 98.0098 29.2078 97.8392 29.0323C97.6704 28.8568 97.539 28.6509 97.4448 28.4146C97.3507 28.1765 97.3045 27.924 97.3045 27.6572ZM98.1608 27.6536C98.1608 27.8291 98.1909 27.9903 98.2531 28.1371C98.3135 28.2839 98.397 28.411 98.5036 28.5149C98.6102 28.6205 98.7328 28.7029 98.8731 28.7602C99.0135 28.8174 99.1662 28.8479 99.3279 28.8479C99.4878 28.8479 99.6388 28.8192 99.7791 28.7602C99.9195 28.7029 100.044 28.6205 100.149 28.5149C100.253 28.4092 100.337 28.2839 100.397 28.1371C100.458 27.992 100.49 27.8291 100.49 27.6519C100.49 27.4782 100.46 27.3188 100.397 27.1738C100.337 27.0288 100.253 26.9034 100.147 26.7978C100.04 26.694 99.9177 26.6116 99.7756 26.5525C99.6352 26.4934 99.4824 26.463 99.3208 26.463C99.1591 26.463 99.0063 26.4916 98.866 26.5507C98.7257 26.608 98.6013 26.6904 98.4983 26.796C98.3935 26.9017 98.3118 27.027 98.2514 27.1738C98.191 27.3206 98.1608 27.48 98.1608 27.6536Z" fill="#EAEBF3"/>
<path d="M102.909 24.7871L103.536 24.7835V25.8256H104.693V26.5722H103.533V28.069C103.533 28.2159 103.551 28.3376 103.584 28.4343C103.618 28.531 103.664 28.6062 103.721 28.6617C103.778 28.7172 103.845 28.7566 103.924 28.7798C104.002 28.8031 104.084 28.8139 104.171 28.8139H104.792L104.785 29.5247H104.091C103.895 29.5247 103.712 29.505 103.54 29.4638C103.368 29.4244 103.218 29.3492 103.092 29.2418C102.966 29.1344 102.865 28.9857 102.79 28.7995C102.716 28.6115 102.678 28.3716 102.678 28.078V26.574H102.071V25.9062L102.657 25.7432L102.909 24.7871Z" fill="#EAEBF3"/>
<path d="M105.586 24.7907C105.586 24.7245 105.599 24.6618 105.625 24.6045C105.652 24.5472 105.688 24.4953 105.734 24.4523C105.78 24.4093 105.835 24.3735 105.901 24.3467C105.967 24.3198 106.039 24.3073 106.119 24.3073C106.199 24.3073 106.272 24.3198 106.34 24.3467C106.407 24.3735 106.464 24.4075 106.51 24.4523C106.556 24.4971 106.594 24.5472 106.62 24.6045C106.647 24.6618 106.659 24.7245 106.659 24.7907C106.659 24.857 106.647 24.9196 106.62 24.9769C106.594 25.0342 106.558 25.0861 106.51 25.1291C106.462 25.1739 106.405 25.2079 106.34 25.233C106.272 25.258 106.199 25.2705 106.119 25.2705C106.039 25.2705 105.967 25.258 105.903 25.233C105.839 25.2079 105.782 25.1739 105.736 25.1291C105.689 25.0861 105.652 25.0342 105.625 24.9769C105.601 24.9196 105.586 24.857 105.586 24.7907ZM105.682 25.8256H106.546V29.4835H105.682V25.8256Z" fill="#EAEBF3"/>
<path d="M107.562 27.6572C107.562 27.3887 107.612 27.138 107.709 26.9017C107.809 26.6653 107.946 26.4594 108.123 26.2839C108.301 26.1085 108.512 25.9706 108.756 25.8686C109.001 25.7665 109.267 25.7164 109.557 25.7164C109.848 25.7164 110.116 25.7665 110.363 25.8686C110.608 25.9706 110.82 26.1085 110.998 26.2839C111.175 26.4594 111.314 26.6653 111.413 26.9017C111.513 27.138 111.562 27.3887 111.562 27.6572C111.562 27.9276 111.513 28.18 111.415 28.4146C111.316 28.6491 111.177 28.855 110.999 29.0305C110.82 29.206 110.608 29.3438 110.363 29.4441C110.118 29.5444 109.848 29.5945 109.553 29.5945C109.264 29.5945 108.997 29.5444 108.754 29.4441C108.51 29.3438 108.301 29.206 108.125 29.0305C107.949 28.855 107.811 28.6491 107.711 28.4128C107.612 28.1765 107.562 27.924 107.562 27.6572ZM108.42 27.6536C108.42 27.8291 108.45 27.9903 108.51 28.1353C108.571 28.2803 108.653 28.4074 108.756 28.5131C108.859 28.6187 108.979 28.7011 109.12 28.7602C109.258 28.8192 109.408 28.8497 109.567 28.8497C109.727 28.8497 109.877 28.821 110.015 28.7619C110.154 28.7046 110.275 28.6223 110.379 28.5166C110.482 28.411 110.564 28.2857 110.624 28.1389C110.685 27.992 110.715 27.8309 110.715 27.6554C110.715 27.4818 110.685 27.3224 110.624 27.1774C110.564 27.0324 110.482 26.907 110.379 26.8014C110.276 26.6975 110.154 26.6152 110.013 26.5561C109.873 26.497 109.724 26.4666 109.567 26.4666C109.408 26.4666 109.258 26.4952 109.12 26.5543C108.981 26.6116 108.86 26.694 108.756 26.7996C108.653 26.9052 108.571 27.0306 108.51 27.1774C108.45 27.3206 108.42 27.48 108.42 27.6536Z" fill="#EAEBF3"/>
<path d="M116.139 29.4853H115.274V27.5337C115.274 27.3385 115.252 27.1738 115.21 27.0395C115.167 26.9052 115.107 26.7942 115.03 26.7083C114.952 26.6224 114.858 26.5615 114.746 26.5239C114.634 26.4863 114.51 26.4666 114.371 26.4666C114.22 26.4666 114.081 26.4952 113.957 26.5507C113.831 26.6062 113.723 26.685 113.63 26.7853C113.538 26.8855 113.467 27.0055 113.417 27.1452C113.366 27.283 113.341 27.437 113.341 27.6017V29.4853H112.483V25.8274H113.181L113.245 26.198C113.319 26.1318 113.405 26.0691 113.499 26.0118C113.593 25.9545 113.694 25.9026 113.801 25.8596C113.907 25.8166 114.019 25.7808 114.138 25.7558C114.256 25.7307 114.375 25.7182 114.495 25.7182C114.778 25.7182 115.021 25.7576 115.229 25.8381C115.435 25.9169 115.607 26.0333 115.742 26.1873C115.878 26.3395 115.977 26.5292 116.043 26.7531C116.107 26.9769 116.14 27.2329 116.14 27.5194V29.4853H116.139Z" fill="#EAEBF3"/>
<path d="M117.656 28.3824C117.658 28.4504 117.679 28.5167 117.718 28.5775C117.757 28.6384 117.809 28.6921 117.874 28.7369C117.94 28.7816 118.016 28.8175 118.103 28.8443C118.19 28.8712 118.285 28.8837 118.386 28.8837C118.659 28.8837 118.86 28.8425 118.99 28.7619C119.12 28.6796 119.184 28.5686 119.184 28.4289C119.184 28.3501 119.16 28.2857 119.112 28.2338C119.065 28.1818 118.997 28.1371 118.908 28.1031C118.819 28.0672 118.709 28.0368 118.58 28.0082C118.45 27.9813 118.302 27.9527 118.139 27.9204C118.057 27.9079 117.97 27.8936 117.88 27.8739C117.789 27.8542 117.698 27.8291 117.61 27.7969C117.521 27.7647 117.435 27.7235 117.354 27.6751C117.272 27.625 117.201 27.5641 117.139 27.4925C117.077 27.4209 117.027 27.3332 116.99 27.2329C116.952 27.1326 116.933 27.0127 116.933 26.8748C116.933 26.7047 116.963 26.5489 117.025 26.4075C117.086 26.266 117.181 26.1443 117.311 26.0404C117.441 25.9366 117.604 25.8578 117.805 25.8005C118.006 25.7432 118.244 25.7146 118.521 25.7146C118.739 25.7146 118.937 25.7432 119.112 25.8005C119.288 25.8578 119.436 25.9366 119.558 26.0387C119.681 26.1407 119.775 26.2625 119.841 26.4057C119.907 26.5472 119.94 26.7029 119.94 26.8712L119.082 26.8676C119.073 26.7405 119.013 26.6349 118.903 26.5507C118.793 26.4684 118.645 26.4254 118.462 26.4254C118.341 26.4254 118.24 26.4379 118.155 26.463C118.07 26.4881 118 26.5203 117.947 26.5615C117.894 26.6027 117.853 26.6492 117.826 26.7011C117.8 26.7548 117.787 26.8103 117.787 26.8659C117.787 26.9321 117.805 26.9876 117.841 27.0324C117.876 27.0771 117.929 27.1147 117.999 27.147C118.07 27.1774 118.158 27.2042 118.267 27.2257C118.375 27.2472 118.501 27.2669 118.647 27.283C118.823 27.3117 118.997 27.3457 119.169 27.3887C119.342 27.4298 119.494 27.4907 119.628 27.5677C119.761 27.6447 119.869 27.7485 119.953 27.8775C120.034 28.0046 120.075 28.1711 120.075 28.3716C120.075 28.5775 120.034 28.7566 119.953 28.9106C119.871 29.0627 119.754 29.1917 119.603 29.2919C119.452 29.394 119.271 29.471 119.059 29.5211C118.848 29.5712 118.611 29.5981 118.354 29.5981C118.095 29.5981 117.869 29.5623 117.677 29.4889C117.483 29.4173 117.324 29.3224 117.196 29.206C117.068 29.0896 116.972 28.9589 116.908 28.8157C116.844 28.6706 116.812 28.5256 116.812 28.3788L117.656 28.3824Z" fill="#EAEBF3"/>
<path d="M120.738 29.0932C120.738 29.0269 120.75 28.9643 120.773 28.907C120.797 28.8497 120.83 28.7978 120.876 28.753C120.921 28.7082 120.974 28.6724 121.035 28.6456C121.095 28.6187 121.164 28.6062 121.239 28.6062C121.314 28.6062 121.383 28.6187 121.443 28.6456C121.504 28.6724 121.557 28.7064 121.601 28.753C121.646 28.7978 121.679 28.8497 121.704 28.907C121.727 28.9643 121.74 29.0269 121.74 29.0932C121.74 29.1594 121.727 29.2221 121.704 29.2794C121.681 29.3367 121.647 29.3886 121.601 29.4316C121.557 29.4763 121.504 29.5104 121.443 29.5354C121.383 29.5605 121.314 29.573 121.239 29.573C121.164 29.573 121.095 29.5605 121.035 29.5336C120.974 29.5068 120.921 29.4728 120.876 29.428C120.832 29.385 120.798 29.3331 120.773 29.2758C120.75 29.2185 120.738 29.1576 120.738 29.0932Z" fill="#EAEBF3"/>
<path d="M122.619 29.0932C122.619 29.0269 122.632 28.9643 122.655 28.907C122.678 28.8497 122.712 28.7978 122.758 28.753C122.802 28.7082 122.855 28.6724 122.916 28.6456C122.976 28.6187 123.046 28.6062 123.12 28.6062C123.195 28.6062 123.264 28.6187 123.324 28.6456C123.385 28.6724 123.438 28.7064 123.483 28.753C123.527 28.7978 123.561 28.8497 123.586 28.907C123.609 28.9643 123.621 29.0269 123.621 29.0932C123.621 29.1594 123.609 29.2221 123.586 29.2794C123.563 29.3367 123.529 29.3886 123.483 29.4316C123.438 29.4763 123.385 29.5104 123.324 29.5354C123.264 29.5605 123.195 29.573 123.12 29.573C123.046 29.573 122.976 29.5605 122.916 29.5336C122.855 29.5068 122.802 29.4728 122.758 29.428C122.713 29.385 122.68 29.3331 122.655 29.2758C122.63 29.2185 122.619 29.1576 122.619 29.0932Z" fill="#EAEBF3"/>
<path d="M124.499 29.0932C124.499 29.0269 124.511 28.9643 124.534 28.907C124.557 28.8497 124.591 28.7978 124.637 28.753C124.682 28.7082 124.735 28.6724 124.795 28.6456C124.856 28.6187 124.925 28.6062 125 28.6062C125.074 28.6062 125.144 28.6187 125.204 28.6456C125.264 28.6724 125.318 28.7064 125.362 28.753C125.406 28.7978 125.44 28.8497 125.465 28.907C125.488 28.9643 125.501 29.0269 125.501 29.0932C125.501 29.1594 125.488 29.2221 125.465 29.2794C125.442 29.3367 125.408 29.3886 125.362 29.4316C125.318 29.4763 125.264 29.5104 125.204 29.5354C125.144 29.5605 125.074 29.573 125 29.573C124.925 29.573 124.856 29.5605 124.795 29.5336C124.735 29.5068 124.682 29.4728 124.637 29.428C124.593 29.385 124.559 29.3331 124.534 29.2758C124.511 29.2185 124.499 29.1576 124.499 29.0932Z" fill="#EAEBF3"/>
<path d="M36.9258 29.7306C36.7108 29.7306 36.4887 29.7181 36.2667 29.693L35.9842 29.6608L35.9167 29.3904C35.7995 28.9213 35.7888 26.3502 35.8759 25.6627L35.9185 25.3296L36.2614 25.3117C36.3146 25.3099 36.3697 25.3064 36.4248 25.3028C36.5527 25.2956 36.6859 25.2885 36.8209 25.2849C37.1496 25.2777 37.4143 25.1828 37.5884 25.0091C37.7642 24.8355 37.8566 24.5705 37.8584 24.2464L37.8602 23.9385C37.8673 22.6654 37.8726 21.3477 37.8566 20.0549C37.8389 18.6279 38.2013 17.4319 38.9651 16.4024C38.9492 16.3773 38.9332 16.3505 38.9172 16.3254C38.7875 16.1159 38.6525 15.8993 38.5264 15.6791C38.0858 14.9074 37.8673 14.03 37.862 13.0005C37.8531 11.1993 37.8531 9.82425 37.8637 8.53691C37.8673 8.15196 37.7341 7.87623 37.4321 7.64526C37.2473 7.50382 36.9986 7.47159 36.7108 7.4322L36.6859 7.42862C36.6149 7.41967 36.5349 7.41609 36.4319 7.4143C36.375 7.4125 36.3111 7.41071 36.2383 7.40713L35.8492 7.38923V3.15658L36.2063 3.11361C36.5101 3.07601 36.7836 3.05811 37.0412 3.05811C37.5227 3.05811 37.9561 3.12077 38.3629 3.25148C40.532 3.94438 41.8555 5.38212 42.2943 7.52888C42.3582 7.83684 42.3902 8.15555 42.392 8.47425C42.3973 9.48586 42.3973 10.5154 42.3973 11.5091C42.3973 11.9835 42.3973 12.458 42.3973 12.9343C42.3973 13.6899 42.6567 14.0086 43.4241 14.2001C43.5023 14.2198 43.5591 14.2521 43.6 14.2771C43.6142 14.2843 43.6266 14.2932 43.6408 14.3004L43.854 14.4132V18.4382L43.5751 18.5295C43.5627 18.5331 43.5467 18.5402 43.5289 18.5456C43.4703 18.5671 43.3903 18.5993 43.2944 18.61C42.694 18.6781 42.3849 19.2492 42.392 19.6342C42.4062 20.2931 42.4026 20.9627 42.3991 21.6091C42.3973 21.8812 42.3973 22.1641 42.3973 22.4416C42.3973 22.6404 42.3991 22.8445 42.4008 23.0414C42.4044 23.4765 42.4097 23.9277 42.3937 24.3735C42.3191 26.4845 41.3136 28.0762 39.4075 29.1057C38.6418 29.5211 37.8051 29.7306 36.9258 29.7306Z" fill="#1F63FB"/>
<path d="M30.6282 9.75085H28.0789H26.8532V11.0239V21.0594L16.8978 10.1483L16.5354 9.75085H16.0078H13.86H12.6343V11.0239V25.2938H12.6307C12.5774 25.292 8.66208 25.3082 8.60701 25.3064C8.4791 25.2992 8.34587 25.292 8.21086 25.2885C7.88221 25.2813 7.61751 25.1864 7.44342 25.0127C7.26755 24.8391 7.17517 24.5741 7.1734 24.25L7.17162 23.942C7.16451 22.669 7.15918 21.3512 7.17517 20.0585C7.19294 18.6315 6.83054 17.4355 6.06665 16.406C6.08264 16.3809 6.09863 16.3541 6.11462 16.329C6.2443 16.1195 6.37931 15.9029 6.50544 15.6826C6.94601 14.911 7.16451 14.0336 7.16984 13.0041C7.17873 11.2029 7.17873 9.82784 7.16807 8.54049C7.16451 8.15555 7.29775 7.87982 7.59975 7.64885C7.7845 7.5074 8.03321 7.47517 8.321 7.43578L8.34587 7.4322C8.41693 7.42325 8.49687 7.41967 8.5999 7.41788C8.65675 7.41609 8.7207 7.41429 8.79354 7.41071L9.18259 7.39281V3.15658L8.82552 3.11361C8.52174 3.07601 8.24816 3.05811 7.99057 3.05811C7.50915 3.05811 7.07569 3.12077 6.66888 3.25148C4.49981 3.94438 3.17633 5.38212 2.73755 7.52888C2.67359 7.83684 2.64162 8.15555 2.63984 8.47425C2.63451 9.48586 2.63451 10.5154 2.63451 11.5091C2.63451 11.9835 2.63451 12.458 2.63451 12.9343C2.63451 13.6899 2.37515 14.0086 1.60771 14.2001C1.52954 14.2198 1.4727 14.2521 1.43184 14.2771C1.41763 14.2843 1.40519 14.2932 1.39098 14.3004L1.1778 14.4132V18.4382L1.45671 18.5295C1.46914 18.5331 1.48513 18.5402 1.5029 18.5456C1.56152 18.5671 1.64146 18.5993 1.73739 18.61C2.33784 18.6781 2.64695 19.2492 2.63984 19.6342C2.62563 20.2931 2.62918 20.9627 2.63273 21.6091C2.63451 21.8812 2.63451 22.1641 2.63451 22.4416C2.63451 22.6404 2.63273 22.8445 2.63096 23.0414C2.6274 23.4765 2.62207 23.9277 2.63806 24.3735C2.71267 26.4845 3.71816 28.0762 5.62431 29.1057C6.39175 29.5193 7.22669 29.7306 8.10782 29.7306C10.634 29.7306 17.6386 29.428 17.6386 29.428V29.4155H17.6404V28.1425V18.1302L27.5815 29.018L27.9439 29.4155H28.4697H30.6299H31.8557V28.1425V11.0239V9.75085H30.6282Z" fill="#1F63FB"/>
<path d="M35.6467 6.67841H32.012V10.0248H35.6467V6.67841Z" fill="white"/>
<path d="M32.0103 4.04644H29.1519V6.67842H32.0103V4.04644Z" fill="white"/>
<path d="M34.2451 2.16467H32.2003V4.04823H34.2451V2.16467Z" fill="white"/>
<path d="M32.2003 0.683952H30.5909V2.16466H32.2003V0.683952Z" fill="white"/>
</svg>
